<svg width="38" height="38" viewBox="0 0 38 38" fill="none" xmlns="http://www.w3.org/2000/svg">
<rect width="38" height="38" fill="white"/>
<path d="M33.6042 14.1654C32.9573 12.9771 32.2917 11.7279 31.7081 10.4576C31.5206 10.0615 31.3542 9.6654 31.1878 9.2904C29.1041 4.72944 26.9573 0 18.7498 0C10.5418 0 8.37395 4.72968 6.31175 9.2904C6.14535 9.6654 5.95785 10.0615 5.79144 10.4576C5.20784 11.7279 4.54224 12.9794 3.89532 14.1654C1.97814 17.7068 0 21.375 0 26.25C0 30.7078 1.58436 33.8742 4.6875 35.625C7.60314 37.2703 11.5407 37.5 15.0003 37.5H22.5003C25.9597 37.5 29.8971 37.2703 32.8131 35.625C35.9373 33.8531 37.5006 30.7078 37.5006 26.25C37.5006 21.375 35.5014 17.7096 33.6053 14.1654H33.6042ZM26.2494 33.5832V22.4994H11.2494V33.5832C5.66657 33.0418 3.74939 30.9793 3.74939 26.2494C3.74939 22.333 5.35253 19.3752 7.18769 15.9582C7.85333 14.709 8.56349 13.4176 9.18689 12.0418C9.37439 11.6457 9.56189 11.2285 9.72829 10.8535C11.7275 6.43788 12.9369 3.77052 18.7283 3.77052C24.5197 3.77052 25.7291 6.4377 27.7283 10.8535C27.8947 11.2496 28.0822 11.6457 28.2697 12.0418C28.9166 13.4176 29.6033 14.709 30.2689 15.9582C32.1228 19.3754 33.7072 22.3332 33.7072 26.2494C33.7494 31.0002 31.8322 33.0414 26.2492 33.5832H26.2494Z" fill="#0C0C0C"/>
</svg>
